<svg width="22" height="22" viewBox="0 0 22 22" fill="none" xmlns="http://www.w3.org/2000/svg">
<g id="shopping-cart" clip-path="url(#clip0_3140_511)">
<path id="Vector" d="M8.25001 20.1667C8.75627 20.1667 9.16668 19.7563 9.16668 19.25C9.16668 18.7438 8.75627 18.3334 8.25001 18.3334C7.74375 18.3334 7.33334 18.7438 7.33334 19.25C7.33334 19.7563 7.74375 20.1667 8.25001 20.1667Z" stroke="#2C2D35" stroke-width="2" stroke-linecap="round" stroke-linejoin="round"/>
<path id="Vector_2" d="M18.3333 20.1667C18.8396 20.1667 19.25 19.7563 19.25 19.25C19.25 18.7438 18.8396 18.3334 18.3333 18.3334C17.8271 18.3334 17.4167 18.7438 17.4167 19.25C17.4167 19.7563 17.8271 20.1667 18.3333 20.1667Z" stroke="#2C2D35" stroke-width="2" stroke-linecap="round" stroke-linejoin="round"/>
<path id="Vector_3" d="M0.916656 0.916626H4.58332L7.03999 13.1908C7.12381 13.6128 7.35341 13.9919 7.68857 14.2617C8.02374 14.5315 8.44313 14.6749 8.87332 14.6666H17.7833C18.2135 14.6749 18.6329 14.5315 18.9681 14.2617C19.3032 13.9919 19.5328 13.6128 19.6167 13.1908L21.0833 5.49996H5.49999" stroke="#2C2D35" stroke-width="2" stroke-linecap="round" stroke-linejoin="round"/>
</g>
<defs>
<clipPath id="clip0_3140_511">
<rect width="22" height="22" fill="white"/>
</clipPath>
</defs>
</svg>
